<?xml version="1.0" encoding="utf-8"?>
<!-- Generator: Adobe Illustrator 21.0.0, SVG Export Plug-In . SVG Version: 6.00 Build 0)  -->
<svg version="1.1" id="Group_6586" xmlns="http://www.w3.org/2000/svg" xmlns:xlink="http://www.w3.org/1999/xlink" x="0px" y="0px"
	 viewBox="0 0 27.1 27.1" enable-background="new 0 0 27.1 27.1" xml:space="preserve">
<path id="Path_3176" d="M11.7,0.8L9.1,0.1C6.9-0.4,4.7,0.8,4.2,3c0,0,0,0,0,0L3.5,5.6C5.5,3,8.5,1.3,11.7,0.8"/>
<path id="Path_3177" d="M26.2,11.7l0.7-2.6c0.6-2.1-0.7-4.3-2.8-4.9c0,0,0,0,0,0l-2.6-0.7C24,5.5,25.7,8.4,26.2,11.7
	"/>
<path id="Path_3178" d="M0.8,15.4L0.1,18c-0.6,2.1,0.7,4.3,2.8,4.9c0,0,0,0,0,0l2.6,0.7C3,21.6,1.3,18.6,0.8,15.4"/>
<path id="Path_3179" d="M15.4,26.2l2.6,0.7c2.1,0.6,4.3-0.7,4.9-2.8c0,0,0,0,0,0l0.7-2.6
	C21.6,24,18.6,25.7,15.4,26.2"/>
<path id="Path_3180" d="M16.6,2.1c-6.3-1.7-12.7,2-14.4,8.3c-1.7,6.3,2,12.7,8.3,14.4c6.3,1.7,12.7-2,14.4-8.3
	C26.6,10.3,22.9,3.8,16.6,2.1C16.6,2.2,16.6,2.2,16.6,2.1 M11.4,5.3c1.7,0.5,2.8,2.2,2.3,4c-0.5,1.7-2.2,2.8-4,2.3
	C8,11.1,7,9.3,7.5,7.6c0,0,0,0,0,0C7.9,5.8,9.7,4.8,11.4,5.3 M7.6,19.6c-1.7-0.5-2.8-2.2-2.3-4c0.5-1.7,2.2-2.8,4-2.3
	c1.7,0.5,2.8,2.2,2.3,4c0,0,0,0,0,0C11.1,19.1,9.3,20.1,7.6,19.6 M12.1,13.2c0.2-0.8,1-1.2,1.8-1c0.8,0.2,1.2,1,1,1.8
	c-0.2,0.8-1,1.2-1.8,1c-0.4-0.1-0.7-0.3-0.9-0.7C12.1,13.9,12,13.5,12.1,13.2 M15.7,21.8c-1.7-0.5-2.8-2.2-2.3-4
	c0.5-1.7,2.2-2.8,4-2.3c1.7,0.5,2.8,2.2,2.3,4c0,0,0,0,0,0C19.1,21.2,17.4,22.2,15.7,21.8 M17.8,13.7c-1.7-0.5-2.8-2.2-2.3-4
	C16,8,17.7,7,19.5,7.4c1.7,0.5,2.8,2.2,2.3,4c0,0,0,0,0,0C21.3,13.1,19.5,14.2,17.8,13.7"/>
</svg>
