<?xml version="1.0" encoding="utf-8"?>
<!-- Generator: Adobe Illustrator 21.0.0, SVG Export Plug-In . SVG Version: 6.00 Build 0)  -->
<svg version="1.1" id="Layer_1" xmlns="http://www.w3.org/2000/svg" xmlns:xlink="http://www.w3.org/1999/xlink" x="0px" y="0px"
	 viewBox="0 0 20.5 20.5" enable-background="new 0 0 20.5 20.5" xml:space="preserve">
<path id="Path_3216" d="M14.4,0H6.1C2.699,0,0,2.801,0,6.1V14.4c0,3.4,2.801,6.1,6.1,6.1H14.4c3.4,0,6.1-2.801,6.1-6.1V6.1
	C20.5,2.699,17.801,0,14.4,0z M18.5,14.5c0,2.301-1.801,4.1-4.1,4.1l0,0H6.1c-2.301,0-4.1-1.801-4.1-4.1l0,0V6.199
	C2,4,3.801,2.1,6.1,2.1H14.4c2.199,0,4.1,1.801,4.1,4.1l0,0V14.5z"/>
<path id="Path_3217" d="M10.201,4.898c-2.9,0-5.301,2.4-5.301,5.301s2.4,5.301,5.301,5.301s5.301-2.4,5.301-5.301l0,0
	C15.6,7.299,13.201,5,10.201,4.898z M10.201,13.5C8.4,13.5,6.9,12,6.9,10.199s1.5-3.301,3.301-3.301s3.301,1.5,3.301,3.301l0,0
	C13.5,12.1,12,13.5,10.201,13.5z"/>
<circle id="Ellipse_598" cx="15.6" cy="5" r="1.301"/>
</svg>
