<?xml version="1.0" encoding="utf-8"?>
<!-- Generator: Adobe Illustrator 16.2.0, SVG Export Plug-In . SVG Version: 6.00 Build 0)  -->
<!DOCTYPE svg PUBLIC "-//W3C//DTD SVG 1.1//EN" "http://www.w3.org/Graphics/SVG/1.1/DTD/svg11.dtd">
<svg version="1.1" id="Layer_1" xmlns="http://www.w3.org/2000/svg" xmlns:xlink="http://www.w3.org/1999/xlink" x="0px" y="0px"
	 width="19px" height="19px" viewBox="0 0 19 19" enable-background="new 0 0 19 19" xml:space="preserve">
<g>
	<g>
		<path d="M7.53,14.561c-1.932,0-3.604-0.693-4.971-2.06C1.193,11.134,0.5,9.462,0.5,7.53s0.693-3.604,2.059-4.971
			C3.926,1.193,5.599,0.5,7.53,0.5s3.604,0.693,4.971,2.059c1.366,1.367,2.06,3.039,2.06,4.971c0,1.932-0.693,3.604-2.06,4.971
			S9.462,14.561,7.53,14.561z M7.53,2.5c-1.402,0-2.565,0.482-3.557,1.473C2.982,4.965,2.5,6.128,2.5,7.53
			c0,1.401,0.482,2.565,1.473,3.557c0.992,0.991,2.155,1.474,3.557,1.474c1.401,0,2.564-0.482,3.557-1.474
			c0.991-0.991,1.474-2.155,1.474-3.557c0-1.402-0.482-2.565-1.474-3.557C10.095,2.982,8.932,2.5,7.53,2.5z"/>
	</g>
	<g>
		<path d="M17.5,18.5c-0.256,0-0.512-0.098-0.707-0.293l-4.021-4.02c-0.391-0.391-0.391-1.023,0-1.414s1.023-0.391,1.414,0
			l4.021,4.02c0.391,0.391,0.391,1.023,0,1.414C18.012,18.402,17.756,18.5,17.5,18.5z"/>
	</g>
</g>
</svg>
