<?xml version="1.0" encoding="utf-8"?>
<!-- Generator: Adobe Illustrator 21.0.0, SVG Export Plug-In . SVG Version: 6.00 Build 0)  -->
<svg version="1.1" id="Layer_1" xmlns="http://www.w3.org/2000/svg" xmlns:xlink="http://www.w3.org/1999/xlink" x="0px" y="0px"
	 viewBox="0 0 20.7 18" enable-background="new 0 0 20.7 18" xml:space="preserve">
<path id="XMLID_497_" d="M0.4,8.6l4.8,1.8L7,16.3c0.1,0.3,0.4,0.5,0.7,0.4c0.1,0,0.1-0.1,0.2-0.1l2.7-2.2
	c0.3-0.2,0.7-0.2,1,0l4.8,3.5c0.3,0.2,0.6,0.1,0.8-0.1c0-0.1,0.1-0.1,0.1-0.2l3.5-16.9c0.1-0.3-0.1-0.6-0.4-0.7c-0.1,0-0.2,0-0.3,0
	L0.4,7.6C0.1,7.7-0.1,8,0,8.3C0.1,8.5,0.2,8.6,0.4,8.6z M6.7,9.5L16,3.7c0.1-0.1,0.2,0,0.2,0s0,0.2,0,0.2l-7.7,7.1
	c-0.3,0.3-0.4,0.6-0.5,1L7.7,14c0,0.1-0.1,0.2-0.3,0.2c-0.1,0-0.2-0.1-0.2-0.2l-1-3.5C6.1,10.1,6.3,9.7,6.7,9.5z"/>
</svg>
