<?xml version="1.0" encoding="utf-8"?>
<!-- Generator: Adobe Illustrator 21.0.0, SVG Export Plug-In . SVG Version: 6.00 Build 0)  -->
<svg version="1.1" id="Layer_1" xmlns="http://www.w3.org/2000/svg" xmlns:xlink="http://www.w3.org/1999/xlink" x="0px" y="0px"
	 viewBox="0 0 20.2 16.8" enable-background="new 0 0 20.2 16.8" xml:space="preserve">
<path id="twitter_1_" d="M19.9,2c-0.4,0.2-0.9,0.4-1.4,0.5c0.5-0.5,0.9-1.1,1.1-1.8l0,0c0-0.1,0-0.2-0.1-0.3
	c-0.1,0-0.1,0-0.2,0l0,0c-0.7,0.4-1.4,0.7-2.1,0.9c0,0-0.1,0-0.1,0c-0.1,0-0.3-0.1-0.4-0.1C15.8,0.4,14.8,0,13.8,0
	c-0.5,0-0.9,0.1-1.4,0.2c-1.4,0.4-2.5,1.6-2.8,3C9.4,3.8,9.4,4.3,9.4,4.9c0,0,0,0.1,0,0.1C9.4,5,9.3,5,9.3,5h0
	C6.2,4.7,3.4,3.2,1.4,0.8l0,0c-0.1-0.1-0.2-0.1-0.3,0c0,0,0,0-0.1,0.1l0,0c-1,1.7-0.7,3.9,0.7,5.3c-0.3-0.1-0.7-0.2-1-0.4l0,0
	c-0.1-0.1-0.2,0-0.3,0.1c0,0,0,0.1,0,0.1l0,0c0,1.7,1,3.3,2.5,4H2.9c-0.2,0-0.5,0-0.7-0.1l0,0C2,9.9,1.9,10,1.9,10.1
	c0,0,0,0.1,0,0.1l0,0c0.5,1.6,1.8,2.7,3.4,3c-1.3,0.9-2.9,1.4-4.5,1.4H0.3c-0.2,0-0.3,0.1-0.3,0.3c0,0.1,0,0.3,0.2,0.4
	c1.8,1.1,3.9,1.6,6,1.6c1.8,0,3.5-0.4,5.1-1.1c1.4-0.7,2.7-1.6,3.8-2.8c1-1.1,1.8-2.4,2.3-3.8c0.5-1.3,0.8-2.8,0.8-4.2V4.8
	c0-0.2,0.1-0.4,0.3-0.6c0.7-0.5,1.3-1.2,1.7-1.9l0,0c0.1-0.1,0-0.2-0.1-0.3C20,1.9,19.9,1.9,19.9,2L19.9,2z"/>
</svg>
