<?xml version="1.0" encoding="utf-8"?>
<!-- Generator: Adobe Illustrator 16.2.0, SVG Export Plug-In . SVG Version: 6.00 Build 0)  -->
<!DOCTYPE svg PUBLIC "-//W3C//DTD SVG 1.1//EN" "http://www.w3.org/Graphics/SVG/1.1/DTD/svg11.dtd">
<svg version="1.1" id="Layer_1" xmlns="http://www.w3.org/2000/svg" xmlns:xlink="http://www.w3.org/1999/xlink" x="0px" y="0px"
	 width="18px" height="21px" viewBox="0 0 18 21" enable-background="new 0 0 18 21" xml:space="preserve">
<g>
	<path d="M9,21c-4.152,0-9-1.109-9-4.235c0-4.858,4.038-8.812,9-8.812c4.963,0,9,3.953,9,8.812
		C18,19.891,13.151,21,9,21z M9,9.953c-3.86,0-7,3.056-7,6.812C2,17.844,4.813,19,9,19c4.188,0,7-1.156,7-2.235
		C16,13.009,12.859,9.953,9,9.953z"/>
</g>
<path fill="#FFFFFF" d="M13.6,5.468c0,1.234-0.449,2.287-1.347,3.16C11.354,9.5,10.271,9.936,9,9.936S6.646,9.5,5.747,8.627
	C4.849,7.755,4.4,6.702,4.4,5.468c0-1.233,0.449-2.287,1.347-3.159C6.646,1.436,7.729,1,9,1s2.354,0.436,3.253,1.309
	C13.15,3.181,13.6,4.234,13.6,5.468z"/>
<g>
	<path d="M9,10.936c-1.533,0-2.862-0.535-3.949-1.591C3.955,8.281,3.4,6.976,3.4,5.468s0.555-2.813,1.65-3.876
		C6.138,0.535,7.466,0,9,0c1.533,0,2.862,0.535,3.949,1.591c1.096,1.064,1.65,2.369,1.65,3.876c0,1.508-0.555,2.813-1.649,3.876
		C11.861,10.401,10.533,10.936,9,10.936z M9,2C7.991,2,7.155,2.335,6.444,3.026C5.741,3.708,5.4,4.507,5.4,5.468
		c0,0.961,0.341,1.76,1.044,2.442C7.155,8.601,7.991,8.936,9,8.936s1.845-0.335,2.557-1.026C12.258,7.228,12.6,6.429,12.6,5.468
		c0-0.96-0.342-1.759-1.044-2.442C10.846,2.335,10.009,2,9,2z"/>
</g>
</svg>
